<svg xmlns="http://www.w3.org/2000/svg" width="800" height="260" viewBox="0 0 800 260">
  <defs>
    <linearGradient id="nbg" x1="0%" y1="0%" x2="100%" y2="100%">
      <stop offset="0%" stop-color="#0b0f14"/>
      <stop offset="100%" stop-color="#151c25"/>
    </linearGradient>
    <radialGradient id="nglow" cx="50%" cy="50%" r="50%">
      <stop offset="0%" stop-color="#b6a891" stop-opacity="0.9"/>
      <stop offset="60%" stop-color="#b6a891" stop-opacity="0.4"/>
      <stop offset="100%" stop-color="#b6a891" stop-opacity="0"/>
    </radialGradient>
    <filter id="glow" x="-50%" y="-50%" width="200%" height="200%">
      <feGaussianBlur stdDeviation="4" result="blur"/>
      <feMerge><feMergeNode in="blur"/><feMergeNode in="SourceGraphic"/></feMerge>
    </filter>
  </defs>
  <rect width="800" height="260" fill="url(#nbg)" rx="12"/>
  <path d="M200 86 C266 86,334 86,400 86" fill="none" stroke="#b6a891" stroke-width="1" opacity="0.2"/>
  <path d="M200 86 C266 86,334 173,400 173" fill="none" stroke="#b6a891" stroke-width="1" opacity="0.2"/>
  <path d="M200 173 C266 173,334 86,400 86" fill="none" stroke="#b6a891" stroke-width="1" opacity="0.2"/>
  <path d="M200 173 C266 173,334 173,400 173" fill="none" stroke="#b6a891" stroke-width="1" opacity="0.2"/>
  <path d="M400 86 C466 86,534 86,600 86" fill="none" stroke="#b6a891" stroke-width="1" opacity="0.2"/>
  <path d="M400 86 C466 86,534 173,600 173" fill="none" stroke="#b6a891" stroke-width="1" opacity="0.2"/>
  <path d="M400 173 C466 173,534 86,600 86" fill="none" stroke="#b6a891" stroke-width="1" opacity="0.2"/>
  <path d="M400 173 C466 173,534 173,600 173" fill="none" stroke="#b6a891" stroke-width="1" opacity="0.2"/>
  <circle r="2.5" fill="#b6a891" opacity="0.9" filter="url(#glow)">
    <animateMotion dur="2.5s" repeatCount="indefinite" path="M200 86 C266 86,334 86,400 86"/>
  </circle>
  <circle r="2.5" fill="#b6a891" opacity="0.9" filter="url(#glow)">
    <animateMotion dur="3.2s" repeatCount="indefinite" path="M200 86 C266 86,334 173,400 173"/>
  </circle>
  <circle r="2.5" fill="#b6a891" opacity="0.9" filter="url(#glow)">
    <animateMotion dur="3.9s" repeatCount="indefinite" path="M200 173 C266 173,334 86,400 86"/>
  </circle>
  <circle r="2.5" fill="#b6a891" opacity="0.9" filter="url(#glow)">
    <animateMotion dur="2.5s" repeatCount="indefinite" path="M200 173 C266 173,334 173,400 173"/>
  </circle>
  <circle r="2.5" fill="#b6a891" opacity="0.9" filter="url(#glow)">
    <animateMotion dur="3.2s" repeatCount="indefinite" path="M400 86 C466 86,534 86,600 86"/>
  </circle>
  <circle r="2.5" fill="#b6a891" opacity="0.9" filter="url(#glow)">
    <animateMotion dur="3.9s" repeatCount="indefinite" path="M400 86 C466 86,534 173,600 173"/>
  </circle>
  <circle r="2.5" fill="#b6a891" opacity="0.9" filter="url(#glow)">
    <animateMotion dur="2.5s" repeatCount="indefinite" path="M400 173 C466 173,534 86,600 86"/>
  </circle>
  <circle r="2.5" fill="#b6a891" opacity="0.9" filter="url(#glow)">
    <animateMotion dur="3.2s" repeatCount="indefinite" path="M400 173 C466 173,534 173,600 173"/>
  </circle>
  <text x="200" y="18" text-anchor="middle" font-family="Consolas, monospace" font-size="10" fill="#b6a891" opacity="0.7" font-weight="bold" letter-spacing="2">FRONTEND</text>
  <circle cx="200" cy="86" r="22" fill="url(#nglow)" opacity="0.5"/>
  <circle cx="200" cy="86" r="14" fill="#151c25" stroke="#b6a891" stroke-width="1.5" opacity="0.9"/>
  <circle cx="200" cy="86" r="5" fill="#b6a891" filter="url(#glow)"/>
  <text x="200" y="114" text-anchor="middle" font-family="Consolas, monospace" font-size="11" fill="#eceff4" opacity="0.9">React</text>
  <circle cx="200" cy="173" r="22" fill="url(#nglow)" opacity="0.5"/>
  <circle cx="200" cy="173" r="14" fill="#151c25" stroke="#b6a891" stroke-width="1.5" opacity="0.9"/>
  <circle cx="200" cy="173" r="5" fill="#b6a891" filter="url(#glow)"/>
  <text x="200" y="201" text-anchor="middle" font-family="Consolas, monospace" font-size="11" fill="#eceff4" opacity="0.9">Next.js</text>
  <text x="400" y="18" text-anchor="middle" font-family="Consolas, monospace" font-size="10" fill="#b6a891" opacity="0.7" font-weight="bold" letter-spacing="2">BACKEND</text>
  <circle cx="400" cy="86" r="22" fill="url(#nglow)" opacity="0.5"/>
  <circle cx="400" cy="86" r="14" fill="#151c25" stroke="#b6a891" stroke-width="1.5" opacity="0.9"/>
  <circle cx="400" cy="86" r="5" fill="#b6a891" filter="url(#glow)"/>
  <text x="400" y="114" text-anchor="middle" font-family="Consolas, monospace" font-size="11" fill="#eceff4" opacity="0.9">FastAPI</text>
  <circle cx="400" cy="173" r="22" fill="url(#nglow)" opacity="0.5"/>
  <circle cx="400" cy="173" r="14" fill="#151c25" stroke="#b6a891" stroke-width="1.5" opacity="0.9"/>
  <circle cx="400" cy="173" r="5" fill="#b6a891" filter="url(#glow)"/>
  <text x="400" y="201" text-anchor="middle" font-family="Consolas, monospace" font-size="11" fill="#eceff4" opacity="0.9">Go</text>
  <text x="600" y="18" text-anchor="middle" font-family="Consolas, monospace" font-size="10" fill="#b6a891" opacity="0.7" font-weight="bold" letter-spacing="2">INFRA</text>
  <circle cx="600" cy="86" r="22" fill="url(#nglow)" opacity="0.5"/>
  <circle cx="600" cy="86" r="14" fill="#151c25" stroke="#b6a891" stroke-width="1.5" opacity="0.9"/>
  <circle cx="600" cy="86" r="5" fill="#b6a891" filter="url(#glow)"/>
  <text x="600" y="114" text-anchor="middle" font-family="Consolas, monospace" font-size="11" fill="#eceff4" opacity="0.9">Docker</text>
  <circle cx="600" cy="173" r="22" fill="url(#nglow)" opacity="0.5"/>
  <circle cx="600" cy="173" r="14" fill="#151c25" stroke="#b6a891" stroke-width="1.5" opacity="0.9"/>
  <circle cx="600" cy="173" r="5" fill="#b6a891" filter="url(#glow)"/>
  <text x="600" y="201" text-anchor="middle" font-family="Consolas, monospace" font-size="11" fill="#eceff4" opacity="0.9">K8s</text>
</svg>